<?xml version="1.0" encoding="UTF-8"?>
<svg width="178px" height="83px" viewBox="0 0 178 83" version="1.1" xmlns="http://www.w3.org/2000/svg" xmlns:xlink="http://www.w3.org/1999/xlink">
    <!-- Generator: Sketch 48.2 (47327) - http://www.bohemiancoding.com/sketch -->
    <title>get help now</title>
    <desc>Created with Sketch.</desc>
    <defs></defs>
    <g id="iPhone-8" stroke="none" stroke-width="1" fill="none" fill-rule="evenodd" transform="translate(-96.000000, -69.000000)">
        <g id="get-help-now">
            <rect id="Rectangle" x="0" y="0" width="375" height="208"></rect>
            <text id="Get-Help-Now" font-family="Lato-Black, Lato" font-size="24" font-weight="700" fill="#666666">
                <tspan x="111.752" y="148">Get Help Now</tspan>
            </text>
            <g id="ic_group_black_24px" stroke-width="1" fill-rule="evenodd" transform="translate(156.000000, 56.000000)"></g>
            <polygon id="Shape" points="156 56 220 56 220 120 156 120"></polygon>
            <path d="M96.5,118.5 L273.502825,118.5" id="Line" stroke="#0039A6" stroke-width="1" stroke-linecap="square"></path>
            <polygon id="Shape" points="153 55 222 55 222 124 153 124"></polygon>
            <path d="M176,83.2307692 L167.375,83.2307692 L167.375,74.6923077 L161.625,74.6923077 L161.625,83.2307692 L153,83.2307692 L153,88.9230769 L161.625,88.9230769 L161.625,97.4615385 L167.375,97.4615385 L167.375,88.9230769 L176,88.9230769 L176,83.2307692 Z M204.75,86.0769231 C209.5225,86.0769231 213.34625,82.2630769 213.34625,77.5384615 C213.34625,72.8138462 209.5225,69 204.75,69 C203.83,69 202.93875,69.1423077 202.13375,69.3984615 C203.7725,71.7038462 204.72125,74.4930769 204.72125,77.5384615 C204.72125,80.5838462 203.74375,83.3446154 202.13375,85.6784615 C202.93875,85.9346154 203.83,86.0769231 204.75,86.0769231 Z M190.375,86.0769231 C195.1475,86.0769231 198.97125,82.2630769 198.97125,77.5384615 C198.97125,72.8138462 195.1475,69 190.375,69 C185.6025,69 181.75,72.8138462 181.75,77.5384615 C181.75,82.2630769 185.6025,86.0769231 190.375,86.0769231 Z M209.4075,92.2246154 C211.79375,94.3023077 213.375,96.9492308 213.375,100.307692 L213.375,106 L222,106 L222,100.307692 C222,95.9246154 215.18625,93.2207692 209.4075,92.2246154 Z M190.375,91.7692308 C184.625,91.7692308 173.125,94.6153846 173.125,100.307692 L173.125,106 L207.625,106 L207.625,100.307692 C207.625,94.6153846 196.125,91.7692308 190.375,91.7692308 Z" id="Shape" fill="#0039A6" fill-rule="nonzero"></path>
        </g>
    </g>
</svg>