<?xml version="1.0" encoding="utf-8"?>
<!-- Generator: Adobe Illustrator 16.0.0, SVG Export Plug-In . SVG Version: 6.00 Build 0)  -->
<!DOCTYPE svg PUBLIC "-//W3C//DTD SVG 1.1//EN" "http://www.w3.org/Graphics/SVG/1.1/DTD/svg11.dtd">
<svg version="1.1" id="Layer_1" xmlns="http://www.w3.org/2000/svg" xmlns:xlink="http://www.w3.org/1999/xlink" x="0px" y="0px"
	 width="54.964px" height="52.318px" viewBox="0 0 54.964 52.318" enable-background="new 0 0 54.964 52.318" xml:space="preserve">
<path fill-rule="evenodd" clip-rule="evenodd" fill="#FFFFFF" d="M41.615,6.371l-0.311-0.547l10.523-5.976l0.31,0.547L41.615,6.371z
	"/>
<path fill-rule="evenodd" clip-rule="evenodd" fill="#FFFFFF" d="M51.401,0.286l0.535-0.33l2.513,4.088l-0.534,0.33L51.401,0.286z"
	/>
<path fill-rule="evenodd" clip-rule="evenodd" fill="#FFFFFF" d="M53.716,3.803l0.615-0.13l0.629,2.988l-0.615,0.13L53.716,3.803z"
	/>
<path fill-rule="evenodd" clip-rule="evenodd" fill="#FFFFFF" d="M54.341,6.369l0.623,0.086l-0.629,4.56l-0.622-0.086L54.341,6.369z
	"/>
<path fill-rule="evenodd" clip-rule="evenodd" fill="#FFFFFF" d="M53.746,10.669l0.558,0.291l-1.886,3.617l-0.556-0.291
	L53.746,10.669z"/>
<path fill-rule="evenodd" clip-rule="evenodd" fill="#FFFFFF" d="M52.075,13.895l0.444,0.444l-3.927,3.932l-0.444-0.445
	L52.075,13.895z"/>
<path fill-rule="evenodd" clip-rule="evenodd" fill="#FFFFFF" d="M48.359,15.142l-0.605-0.164l2.67-9.907l0.605,0.164L48.359,15.142
	z"/>
<path fill-rule="evenodd" clip-rule="evenodd" fill="#FFFFFF" d="M50.876,5.535l-0.614-0.134l1.1-5.032l0.613,0.135L50.876,5.535z"
	/>
<path fill-rule="evenodd" clip-rule="evenodd" fill="#FFFFFF" d="M50.378,5.561l0.381-0.501l3.927,2.988l-0.381,0.501L50.378,5.561z
	"/>
<path fill-rule="evenodd" clip-rule="evenodd" fill="#FFFFFF" d="M50.705,4.997l0.043,0.627l-9.267,0.629l-0.042-0.627L50.705,4.997
	z"/>
<path fill-rule="evenodd" clip-rule="evenodd" fill="#FFFFFF" d="M44.405,8.433L44.169,7.85l6.596-2.673l0.236,0.583L44.405,8.433z"
	/>
<path fill-rule="evenodd" clip-rule="evenodd" fill="#FFFFFF" d="M50.574,5.519l0.62-0.102l1.413,8.649l-0.62,0.102L50.574,5.519z"
	/>
<path fill-rule="evenodd" clip-rule="evenodd" fill="#FFFFFF" d="M13.349,6.371l0.31-0.547L3.136-0.152l-0.31,0.547L13.349,6.371z"
	/>
<path fill-rule="evenodd" clip-rule="evenodd" fill="#FFFFFF" d="M3.562,0.286l-0.535-0.33L0.515,4.045l0.535,0.33L3.562,0.286z"/>
<path fill-rule="evenodd" clip-rule="evenodd" fill="#FFFFFF" d="M1.247,3.803l-0.615-0.13L0.003,6.661l0.615,0.13L1.247,3.803z"/>
<path fill-rule="evenodd" clip-rule="evenodd" fill="#FFFFFF" d="M0.622,6.369L0,6.455l0.628,4.56l0.623-0.086L0.622,6.369z"/>
<path fill-rule="evenodd" clip-rule="evenodd" fill="#FFFFFF" d="M1.218,10.669L0.661,10.96l1.885,3.617l0.557-0.291L1.218,10.669z"
	/>
<path fill-rule="evenodd" clip-rule="evenodd" fill="#FFFFFF" d="M2.889,13.895l-0.444,0.444l3.926,3.932l0.444-0.445L2.889,13.895z
	"/>
<path fill-rule="evenodd" clip-rule="evenodd" fill="#FFFFFF" d="M6.604,15.142l0.606-0.164l-2.67-9.907L3.934,5.235L6.604,15.142z"
	/>
<path fill-rule="evenodd" clip-rule="evenodd" fill="#FFFFFF" d="M4.087,5.535l0.614-0.134L3.602,0.369L2.988,0.503L4.087,5.535z"/>
<path fill-rule="evenodd" clip-rule="evenodd" fill="#FFFFFF" d="M4.584,5.561L4.205,5.06L0.278,8.048l0.38,0.501L4.584,5.561z"/>
<path fill-rule="evenodd" clip-rule="evenodd" fill="#FFFFFF" d="M4.259,4.997L4.216,5.625l9.266,0.629l0.042-0.627L4.259,4.997z"/>
<path fill-rule="evenodd" clip-rule="evenodd" fill="#FFFFFF" d="M10.559,8.433l0.235-0.583L4.198,5.176L3.962,5.759L10.559,8.433z"
	/>
<path fill-rule="evenodd" clip-rule="evenodd" fill="#FFFFFF" d="M4.39,5.519l-0.62-0.102l-1.414,8.649l0.62,0.102L4.39,5.519z"/>
<path fill-rule="evenodd" clip-rule="evenodd" fill="#FFFFFF" d="M27.383,52.166l-0.117-0.617l6.596-1.259l0.118,0.618
	L27.383,52.166z"/>
<path fill-rule="evenodd" clip-rule="evenodd" fill="#FFFFFF" d="M33.945,51.013l-0.361-0.515l4.712-3.303l0.36,0.516L33.945,51.013
	z"/>
<path fill-rule="evenodd" clip-rule="evenodd" fill="#FFFFFF" d="M38.631,47.795l-0.625-0.055l0.471-5.347l0.626,0.056
	L38.631,47.795z"/>
<path fill-rule="evenodd" clip-rule="evenodd" fill="#FFFFFF" d="M39.069,42.724l-0.558-0.291l1.885-3.616l0.557,0.291
	L39.069,42.724z"/>
<path fill-rule="evenodd" clip-rule="evenodd" fill="#FFFFFF" d="M40.671,39.393l-0.309-0.548l3.612-2.044l0.309,0.548
	L40.671,39.393z"/>
<path fill-rule="evenodd" clip-rule="evenodd" fill="#FFFFFF" d="M44.411,37.374l-0.562-0.282l2.67-5.346l0.562,0.282L44.411,37.374
	z"/>
<path fill-rule="evenodd" clip-rule="evenodd" fill="#FFFFFF" d="M47.034,32.253l-0.468-0.42l2.67-2.988l0.468,0.419L47.034,32.253z
	"/>
<path fill-rule="evenodd" clip-rule="evenodd" fill="#FFFFFF" d="M49.615,29.299l-0.604-0.173l0.627-2.202l0.604,0.173
	L49.615,29.299z"/>
<path fill-rule="evenodd" clip-rule="evenodd" fill="#FFFFFF" d="M50.253,27.303l-0.626,0.046l-0.471-6.447l0.626-0.046
	L50.253,27.303z"/>
<path fill-rule="evenodd" clip-rule="evenodd" fill="#FFFFFF" d="M49.926,20.94l-0.599,0.19l-1.1-3.459l0.599-0.19L49.926,20.94z"/>
<path fill-rule="evenodd" clip-rule="evenodd" fill="#FFFFFF" d="M48.838,17.689l-0.622,0.089l-0.472-3.302l0.622-0.089
	L48.838,17.689z"/>
<path fill-rule="evenodd" clip-rule="evenodd" fill="#FFFFFF" d="M48.328,14.43l-0.542,0.317L44.015,8.3l0.543-0.318L48.328,14.43z"
	/>
<path fill-rule="evenodd" clip-rule="evenodd" fill="#FFFFFF" d="M44.627,8.043l-0.366,0.511l-6.126-4.403l0.367-0.511L44.627,8.043
	z"/>
<path fill-rule="evenodd" clip-rule="evenodd" fill="#FFFFFF" d="M38.583,3.757L38.37,4.349l-5.654-2.044l0.213-0.591L38.583,3.757z
	"/>
<path fill-rule="evenodd" clip-rule="evenodd" fill="#FFFFFF" d="M33.014,1.696l-0.071,0.625l-5.497-0.629l0.071-0.625L33.014,1.696
	z"/>
<path fill-rule="evenodd" clip-rule="evenodd" fill="#FFFFFF" d="M27.601,1.626l0.39-0.494l20.888,16.511l-0.389,0.494L27.601,1.626
	z"/>
<path fill-rule="evenodd" clip-rule="evenodd" fill="#FFFFFF" d="M48.263,17.563l0.528,0.341l-7.696,11.951l-0.528-0.341
	L48.263,17.563z"/>
<path fill-rule="evenodd" clip-rule="evenodd" fill="#FFFFFF" d="M40.542,29.491l0.58-0.242l3.141,7.547l-0.58,0.243L40.542,29.491z
	"/>
<path fill-rule="evenodd" clip-rule="evenodd" fill="#FFFFFF" d="M41.062,29.676l-0.146-0.612l9.108-2.201l0.147,0.611
	L41.062,29.676z"/>
<path fill-rule="evenodd" clip-rule="evenodd" fill="#FFFFFF" d="M40.691,29.11l0.595,0.205L36.26,43.94l-0.595-0.206L40.691,29.11z
	"/>
<path fill-rule="evenodd" clip-rule="evenodd" fill="#FFFFFF" d="M35.95,43.258l0.341,0.528l-4.869,3.146l-0.34-0.528L35.95,43.258z
	"/>
<path fill-rule="evenodd" clip-rule="evenodd" fill="#FFFFFF" d="M31.138,46.67l0.54-0.32l2.513,4.245l-0.54,0.321L31.138,46.67z"/>
<path fill-rule="evenodd" clip-rule="evenodd" fill="#FFFFFF" d="M31.316,46.32l0.499,0.381l-4.083,5.348l-0.5-0.383L31.316,46.32z"
	/>
<path fill-rule="evenodd" clip-rule="evenodd" fill="#FFFFFF" d="M31.854,46.225l-0.264,0.57l-4.398-2.045l0.265-0.569
	L31.854,46.225z"/>
<path fill-rule="evenodd" clip-rule="evenodd" fill="#FFFFFF" d="M31.6,46.198l-0.069,0.625l-4.241-0.472l0.069-0.625L31.6,46.198z"
	/>
<path fill-rule="evenodd" clip-rule="evenodd" fill="#FFFFFF" d="M27.53,41.558l-0.411-0.476l13.978-12.107l0.411,0.476
	L27.53,41.558z"/>
<path fill-rule="evenodd" clip-rule="evenodd" fill="#FFFFFF" d="M41.458,29.256l-0.623-0.086l1.256-9.121l0.623,0.086
	L41.458,29.256z"/>
<path fill-rule="evenodd" clip-rule="evenodd" fill="#FFFFFF" d="M42.515,20.543l-0.226-0.587l6.125-2.359l0.226,0.587
	L42.515,20.543z"/>
<path fill-rule="evenodd" clip-rule="evenodd" fill="#FFFFFF" d="M42.856,20.146l-0.594,0.207l-3.455-9.907l0.593-0.208
	L42.856,20.146z"/>
<path fill-rule="evenodd" clip-rule="evenodd" fill="#FFFFFF" d="M42.999,7.104l0.378,0.503L27.514,19.557l-0.378-0.502
	L42.999,7.104z"/>
<path fill-rule="evenodd" clip-rule="evenodd" fill="#FFFFFF" d="M30.931,16.73l-0.616,0.119L27.33,1.281l0.618-0.118L30.931,16.73z
	"/>
<path fill-rule="evenodd" clip-rule="evenodd" fill="#FFFFFF" d="M30.541,17.093l0.165-0.607l12.094,3.302l-0.166,0.607
	L30.541,17.093z"/>
<path fill-rule="evenodd" clip-rule="evenodd" fill="#FFFFFF" d="M42.149,19.906l0.507,0.372L39.2,24.996l-0.506-0.372
	L42.149,19.906z"/>
<path fill-rule="evenodd" clip-rule="evenodd" fill="#FFFFFF" d="M39.081,24.339l0.047,0.627l-6.282,0.472l-0.047-0.627
	L39.081,24.339z"/>
<path fill-rule="evenodd" clip-rule="evenodd" fill="#FFFFFF" d="M32.474,26.995l-0.562-0.281l0.942-1.887l0.562,0.281
	L32.474,26.995z"/>
<path fill-rule="evenodd" clip-rule="evenodd" fill="#FFFFFF" d="M33.283,25.361l-0.608-0.16l0.786-2.987l0.607,0.16L33.283,25.361z
	"/>
<path fill-rule="evenodd" clip-rule="evenodd" fill="#FFFFFF" d="M33.782,22.87l-0.35-0.523l3.299-2.202l0.349,0.523L33.782,22.87z"
	/>
<path fill-rule="evenodd" clip-rule="evenodd" fill="#FFFFFF" d="M36.608,20.721l-0.034-0.628l5.812-0.314l0.034,0.628
	L36.608,20.721z"/>
<path fill-rule="evenodd" clip-rule="evenodd" fill="#FFFFFF" d="M27.325,19.264l0.313-0.545l6.282,3.617l-0.313,0.545
	L27.325,19.264z"/>
<path fill-rule="evenodd" clip-rule="evenodd" fill="#FFFFFF" d="M27.215,19.314l0.534-0.332l4.869,7.863l-0.534,0.331
	L27.215,19.314z"/>
<path fill-rule="evenodd" clip-rule="evenodd" fill="#FFFFFF" d="M27.237,25.583l0.176-0.604l13.978,4.088l-0.175,0.604
	L27.237,25.583z"/>
<path fill-rule="evenodd" clip-rule="evenodd" fill="#FFFFFF" d="M32.665,37.07l-0.628,0.01l-0.157-10.378l0.628-0.01L32.665,37.07z
	"/>
<path fill-rule="evenodd" clip-rule="evenodd" fill="#FFFFFF" d="M27.813,25.543l0.593-0.208l4.083,11.637l-0.593,0.208
	L27.813,25.543z"/>
<path fill-rule="evenodd" clip-rule="evenodd" fill="#FFFFFF" d="M32.163,36.605l0.062,0.626l-4.869,0.472l-0.061-0.626
	L32.163,36.605z"/>
<path fill-rule="evenodd" clip-rule="evenodd" fill="#FFFFFF" d="M36.277,22.451c0,0-0.431-0.042-0.628,0.157
	c-0.195,0.194-0.157,0.629-0.157,0.629s1.322,1.389,2.827,0.629c1.415-0.715,0.785-2.516,0.785-2.516s-0.342-0.239-0.629-0.157
	c-0.261,0.075-0.471,0.472-0.471,0.472s0.289,1.031-0.313,1.258C37.199,23.108,36.277,22.451,36.277,22.451z"/>
<path fill-rule="evenodd" clip-rule="evenodd" fill="#FFFFFF" d="M27.58,52.166l0.118-0.617l-6.597-1.259l-0.117,0.618L27.58,52.166
	z"/>
<path fill-rule="evenodd" clip-rule="evenodd" fill="#FFFFFF" d="M21.02,51.013l0.36-0.515l-4.711-3.303l-0.36,0.516L21.02,51.013z"
	/>
<path fill-rule="evenodd" clip-rule="evenodd" fill="#FFFFFF" d="M16.332,47.795l0.626-0.055l-0.471-5.347l-0.626,0.056
	L16.332,47.795z"/>
<path fill-rule="evenodd" clip-rule="evenodd" fill="#FFFFFF" d="M15.895,42.724l0.557-0.291l-1.885-3.616l-0.557,0.291
	L15.895,42.724z"/>
<path fill-rule="evenodd" clip-rule="evenodd" fill="#FFFFFF" d="M14.292,39.393l0.309-0.548l-3.612-2.044l-0.309,0.548
	L14.292,39.393z"/>
<path fill-rule="evenodd" clip-rule="evenodd" fill="#FFFFFF" d="M10.553,37.374l0.562-0.282l-2.67-5.346l-0.562,0.282
	L10.553,37.374z"/>
<path fill-rule="evenodd" clip-rule="evenodd" fill="#FFFFFF" d="M7.93,32.253l0.468-0.42l-2.67-2.988L5.26,29.265L7.93,32.253z"/>
<path fill-rule="evenodd" clip-rule="evenodd" fill="#FFFFFF" d="M5.349,29.299l0.604-0.173l-0.628-2.202l-0.604,0.173L5.349,29.299
	z"/>
<path fill-rule="evenodd" clip-rule="evenodd" fill="#FFFFFF" d="M4.709,27.303l0.626,0.046l0.471-6.447l-0.626-0.046L4.709,27.303z
	"/>
<path fill-rule="evenodd" clip-rule="evenodd" fill="#FFFFFF" d="M5.038,20.94l0.599,0.19l1.099-3.459l-0.599-0.19L5.038,20.94z"/>
<path fill-rule="evenodd" clip-rule="evenodd" fill="#FFFFFF" d="M6.125,17.689l0.622,0.089l0.471-3.302l-0.622-0.089L6.125,17.689z
	"/>
<path fill-rule="evenodd" clip-rule="evenodd" fill="#FFFFFF" d="M6.636,14.43l0.542,0.317L10.948,8.3l-0.542-0.318L6.636,14.43z"/>
<path fill-rule="evenodd" clip-rule="evenodd" fill="#FFFFFF" d="M10.336,8.043l0.366,0.511l6.125-4.403L16.461,3.64L10.336,8.043z"
	/>
<path fill-rule="evenodd" clip-rule="evenodd" fill="#FFFFFF" d="M16.381,3.757l0.213,0.592l5.654-2.044l-0.213-0.591L16.381,3.757z
	"/>
<path fill-rule="evenodd" clip-rule="evenodd" fill="#FFFFFF" d="M21.949,1.696l0.071,0.625l5.497-0.629l-0.071-0.625L21.949,1.696z
	"/>
<path fill-rule="evenodd" clip-rule="evenodd" fill="#FFFFFF" d="M27.362,1.626l-0.389-0.494L6.084,17.644l0.389,0.494L27.362,1.626
	z"/>
<path fill-rule="evenodd" clip-rule="evenodd" fill="#FFFFFF" d="M6.7,17.563l-0.528,0.341l7.695,11.951l0.528-0.341L6.7,17.563z"/>
<path fill-rule="evenodd" clip-rule="evenodd" fill="#FFFFFF" d="M14.422,29.491l-0.58-0.242l-3.141,7.547l0.58,0.243L14.422,29.491
	z"/>
<path fill-rule="evenodd" clip-rule="evenodd" fill="#FFFFFF" d="M13.901,29.676l0.147-0.612l-9.109-2.201l-0.147,0.611
	L13.901,29.676z"/>
<path fill-rule="evenodd" clip-rule="evenodd" fill="#FFFFFF" d="M14.272,29.11l-0.594,0.205l5.026,14.625l0.594-0.206L14.272,29.11
	z"/>
<path fill-rule="evenodd" clip-rule="evenodd" fill="#FFFFFF" d="M19.014,43.258l-0.34,0.528l4.869,3.146l0.341-0.528L19.014,43.258
	z"/>
<path fill-rule="evenodd" clip-rule="evenodd" fill="#FFFFFF" d="M23.826,46.67l-0.541-0.32l-2.513,4.245l0.541,0.321L23.826,46.67z
	"/>
<path fill-rule="evenodd" clip-rule="evenodd" fill="#FFFFFF" d="M23.648,46.32l-0.499,0.381l4.083,5.348l0.5-0.383L23.648,46.32z"
	/>
<path fill-rule="evenodd" clip-rule="evenodd" fill="#FFFFFF" d="M23.109,46.225l0.265,0.57l4.397-2.045l-0.265-0.569L23.109,46.225
	z"/>
<path fill-rule="evenodd" clip-rule="evenodd" fill="#FFFFFF" d="M23.364,46.198l0.069,0.625l4.24-0.472l-0.069-0.625L23.364,46.198
	z"/>
<path fill-rule="evenodd" clip-rule="evenodd" fill="#FFFFFF" d="M27.433,41.558l0.411-0.476L13.866,28.975l-0.411,0.476
	L27.433,41.558z"/>
<path fill-rule="evenodd" clip-rule="evenodd" fill="#FFFFFF" d="M13.507,29.256l0.622-0.086l-1.256-9.121l-0.623,0.086
	L13.507,29.256z"/>
<path fill-rule="evenodd" clip-rule="evenodd" fill="#FFFFFF" d="M12.449,20.543l0.226-0.587l-6.125-2.359l-0.226,0.587
	L12.449,20.543z"/>
<path fill-rule="evenodd" clip-rule="evenodd" fill="#FFFFFF" d="M12.108,20.146l0.593,0.207l3.456-9.907l-0.593-0.208
	L12.108,20.146z"/>
<path fill-rule="evenodd" clip-rule="evenodd" fill="#FFFFFF" d="M11.965,7.104l-0.377,0.503L27.45,19.557l0.377-0.502L11.965,7.104
	z"/>
<path fill-rule="evenodd" clip-rule="evenodd" fill="#FFFFFF" d="M24.032,16.73l0.617,0.119l2.984-15.568l-0.617-0.118L24.032,16.73
	z"/>
<path fill-rule="evenodd" clip-rule="evenodd" fill="#FFFFFF" d="M24.423,17.093l-0.166-0.607l-12.093,3.302l0.166,0.607
	L24.423,17.093z"/>
<path fill-rule="evenodd" clip-rule="evenodd" fill="#FFFFFF" d="M12.814,19.906l-0.506,0.372l3.455,4.717l0.507-0.372
	L12.814,19.906z"/>
<path fill-rule="evenodd" clip-rule="evenodd" fill="#FFFFFF" d="M15.883,24.339l-0.047,0.627l6.282,0.472l0.047-0.627
	L15.883,24.339z"/>
<path fill-rule="evenodd" clip-rule="evenodd" fill="#FFFFFF" d="M22.489,26.995l0.562-0.281l-0.942-1.887l-0.562,0.281
	L22.489,26.995z"/>
<path fill-rule="evenodd" clip-rule="evenodd" fill="#FFFFFF" d="M21.681,25.361l0.607-0.16l-0.785-2.987l-0.608,0.16L21.681,25.361
	z"/>
<path fill-rule="evenodd" clip-rule="evenodd" fill="#FFFFFF" d="M21.182,22.87l0.349-0.523l-3.298-2.202l-0.348,0.523L21.182,22.87
	z"/>
<path fill-rule="evenodd" clip-rule="evenodd" fill="#FFFFFF" d="M18.355,20.721l0.034-0.628l-5.811-0.314l-0.034,0.628
	L18.355,20.721z"/>
<path fill-rule="evenodd" clip-rule="evenodd" fill="#FFFFFF" d="M27.638,19.264l-0.313-0.545l-6.282,3.617l0.313,0.545
	L27.638,19.264z"/>
<path fill-rule="evenodd" clip-rule="evenodd" fill="#FFFFFF" d="M27.749,19.314l-0.534-0.332l-4.869,7.863l0.534,0.331
	L27.749,19.314z"/>
<path fill-rule="evenodd" clip-rule="evenodd" fill="#FFFFFF" d="M27.727,25.583l-0.176-0.604l-13.978,4.088l0.176,0.604
	L27.727,25.583z"/>
<path fill-rule="evenodd" clip-rule="evenodd" fill="#FFFFFF" d="M22.299,37.07l0.628,0.01l0.157-10.378l-0.628-0.01L22.299,37.07z"
	/>
<path fill-rule="evenodd" clip-rule="evenodd" fill="#FFFFFF" d="M27.15,25.543l-0.593-0.208l-4.083,11.637l0.593,0.208
	L27.15,25.543z"/>
<path fill-rule="evenodd" clip-rule="evenodd" fill="#FFFFFF" d="M22.8,36.605l-0.061,0.626l4.869,0.472l0.061-0.626L22.8,36.605z"
	/>
<path fill-rule="evenodd" clip-rule="evenodd" fill="#FFFFFF" d="M18.687,22.451c0,0,0.43-0.042,0.628,0.157
	c0.194,0.194,0.157,0.629,0.157,0.629s-1.322,1.389-2.827,0.629c-1.416-0.715-0.786-2.516-0.786-2.516s0.341-0.239,0.628-0.157
	c0.261,0.075,0.471,0.472,0.471,0.472s-0.289,1.031,0.314,1.258C17.765,23.108,18.687,22.451,18.687,22.451z"/>
<path fill-rule="evenodd" clip-rule="evenodd" fill="#FFFFFF" d="M27.167,1.537h0.628v23.902h-0.628V1.537z"/>
<path fill-rule="evenodd" clip-rule="evenodd" fill="#FFFFFF" d="M27.011,37.39h0.628v7.233h-0.628V37.39z"/>
<path fill-rule="evenodd" clip-rule="evenodd" fill="#FFFFFF" d="M27.011,46.039h0.628V51.7h-0.628V46.039z"/>
</svg>
